HIERARCHY
ROOT Hips
{
	OFFSET 0.000000 96.227043 0.000000
	CHANNELS 6 Xposition Yposition Zposition Xrotation Yrotation Zrotation
	JOINT Spine
	{
		OFFSET 18.844400 -5.529312 -4.507404
		CHANNELS 3 Xrotation Yrotation Zrotation
		JOINT Spine1
		{
			OFFSET -0.093451 -32.082302 2.793235
			CHANNELS 3 Xrotation Yrotation Zrotation
			JOINT Spine2
			{
				OFFSET 0.093456 -31.984573 -5.636157
				CHANNELS 3 Xrotation Yrotation Zrotation
				JOINT Neck
				{
					OFFSET 1.077541 -26.551878 14.354875
					CHANNELS 3 Xrotation Yrotation Zrotation
					End Site
					{
						OFFSET 0 0 0
					}
				}
			}
		}
	}
	JOINT Head
	{
		OFFSET -18.844400 -5.529312 -4.881217
		CHANNELS 3 Xrotation Yrotation Zrotation
		JOINT HeadTop_End
		{
			OFFSET 0.122213 -32.043598 3.234913
			CHANNELS 3 Xrotation Yrotation Zrotation
			JOINT HeadTop_End1
			{
				OFFSET -0.122217 -31.792419 -5.571171
				CHANNELS 3 Xrotation Yrotation Zrotation
				JOINT Hair_Back
				{
					OFFSET -0.656431 -26.630018 14.273270
					CHANNELS 3 Xrotation Yrotation Zrotation
					End Site
					{
						OFFSET 0 0 0
					}
				}
			}
		}
	}
	JOINT LeftShoulder
	{
		OFFSET 0.000000 10.533501 -0.523275
		CHANNELS 3 Xrotation Yrotation Zrotation
		JOINT LeftArm
		{
			OFFSET 0.000000 11.299545 -1.325292
			CHANNELS 3 Xrotation Yrotation Zrotation
			JOINT LeftForeArm
			{
				OFFSET 0.000000 13.785172 -2.776498
				CHANNELS 3 Xrotation Yrotation Zrotation
				JOINT LeftHand
				{
					OFFSET 0.000000 10.127335 -2.861757
					CHANNELS 3 Xrotation Yrotation Zrotation
					JOINT LeftHandThumb1
					{
						OFFSET 0.000000 13.647385 -1.413862
						CHANNELS 3 Xrotation Yrotation Zrotation
						End Site
						{
							OFFSET 0 0 0
						}
					}
				}
				JOINT LeftHandThumb2
				{
					OFFSET 15.012800 10.971771 -0.360322
					CHANNELS 3 Xrotation Yrotation Zrotation
					JOINT LeftHandThumb3
					{
						OFFSET 25.777773 -2.567703 -13.327240
						CHANNELS 3 Xrotation Yrotation Zrotation
						JOINT LeftHandThumb4
						{
							OFFSET 29.787109 0.000000 -0.000004
							CHANNELS 3 Xrotation Yrotation Zrotation
							JOINT LeftHandIndex1
							{
								OFFSET 27.907402 0.000000 0.000000
								CHANNELS 3 Xrotation Yrotation Zrotation
								End Site
								{
									OFFSET 0 0 0
								}
							}
						}
					}
				}
				JOINT LeftHandIndex2
				{
					OFFSET -15.263000 11.005325 -0.581376
					CHANNELS 3 Xrotation Yrotation Zrotation
					JOINT LeftHandIndex3
					{
						OFFSET -25.898201 -2.575592 -13.247862
						CHANNELS 3 Xrotation Yrotation Zrotation
						JOINT LeftHandIndex4
						{
							OFFSET -29.683594 0.000000 0.000004
							CHANNELS 3 Xrotation Yrotation Zrotation
							JOINT LeftHandMiddle1
							{
								OFFSET -27.552399 0.000000 0.000002
								CHANNELS 3 Xrotation Yrotation Zrotation
								End Site
								{
									OFFSET 0 0 0
								}
							}
						}
					}
				}
			}
		}
	}
}
MOTION
Frames: 6
Frame Time: 0.03333333
-0.047264 93.255791 3.906384 -3.661500 3.331122 2.210683 -1.476730 8.141054 4.561686 18.294447 3.476359 0.657607 -12.417541 1.083400 -5.456859 0.000000 0.000000 0.000000 -1.273728 -11.747741 -11.440797 20.459019 -4.257411 -1.234021 -14.255001 -2.985225 10.816113 0.000000 0.000000 0.000000 4.353121 -0.768261 -0.559600 1.013923 -0.158665 0.059469 1.013867 -0.165818 0.077033 0.942275 -0.546183 0.136709 0.000000 0.000000 0.000000 0.690212 -2.082862 -16.857556 4.778408 -6.136919 -37.933850 0.000042 -66.118956 0.000067 0.000000 0.000000 0.000000 0.097040 8.208296 21.087120 -3.899876 6.709550 55.252597 0.000005 9.850091 0.000013 0.000000 0.000000 0.000000 
0.019249 93.263824 3.879757 -3.672372 3.376510 2.213447 -1.515904 8.158991 4.498730 18.326589 3.418919 0.659527 -12.413770 1.074631 -5.363362 0.000000 0.000000 0.000000 -1.232291 -11.766422 -11.500165 20.371324 -4.282565 -1.210848 -14.186497 -2.990466 10.872057 0.000000 0.000000 0.000000 4.305278 -0.724746 -0.585104 0.995643 -0.158665 0.059470 0.995588 -0.165817 0.077033 1.151202 -0.585444 0.136708 0.000000 0.000000 0.000000 0.675414 -2.135707 -16.822015 4.848644 -6.175052 -37.893572 -0.000008 -66.126094 -0.000006 0.000000 0.000000 0.000000 0.166962 8.241109 20.508661 -3.218630 6.331187 55.825844 -0.000018 10.294659 0.000010 0.000000 0.000000 0.000000 
0.087523 93.272049 3.853162 -3.681332 3.421840 2.216117 -1.552302 8.178343 4.432217 18.352923 3.368685 0.672671 -12.408398 1.063769 -5.278858 0.000000 0.000000 0.000000 -1.203086 -11.785523 -11.553473 20.297012 -4.290104 -1.199997 -14.125070 -2.993686 10.908849 0.000000 0.000000 0.000000 4.259370 -0.679522 -0.611185 0.976824 -0.158665 0.059469 0.976775 -0.165816 0.077033 1.346307 -0.622290 0.136708 0.000000 0.000000 0.000000 0.665346 -2.175404 -16.765867 4.944696 -6.267387 -37.818915 0.000023 -66.156891 0.000034 0.000000 0.000000 0.000000 0.247688 8.251714 19.901517 -2.547025 5.943859 56.438031 0.000003 10.736695 0.000012 0.000000 0.000000 0.000000 
0.153586 93.280045 3.826628 -3.692191 3.467172 2.219100 -1.579606 8.199696 4.367959 18.366877 3.311535 0.687500 -12.398135 1.052601 -5.210805 0.000000 0.000000 0.000000 -1.177629 -11.810321 -11.626113 20.222196 -4.293368 -1.172412 -14.049539 -2.998085 10.959418 0.000000 0.000000 0.000000 4.211629 -0.635948 -0.636883 0.958537 -0.158667 0.059469 0.958494 -0.165817 0.077033 1.555120 -0.661527 0.136708 0.000000 0.000000 0.000000 0.663056 -2.191876 -16.697215 5.066232 -6.401006 -37.692290 -0.000002 -66.213261 0.000001 0.000000 0.000000 0.000000 0.334797 8.239507 19.270154 -1.865228 5.532017 57.077965 0.000013 11.186731 -0.000020 0.000000 0.000000 0.000000 
0.215372 93.287376 3.799670 -3.708772 3.512666 2.222326 -1.617315 8.233399 4.311361 18.411916 3.258318 0.696305 -12.401804 1.040767 -5.108638 0.000000 0.000000 0.000000 -1.150041 -11.833916 -11.688518 20.172315 -4.311594 -1.140473 -13.992806 -3.001515 10.986306 0.000000 0.000000 0.000000 4.158257 -0.597444 -0.660735 0.941866 -0.158665 0.059469 0.941833 -0.165817 0.077032 1.805143 -0.707956 0.136708 0.000000 0.000000 0.000000 0.669866 -2.179754 -16.623755 5.172948 -6.537936 -37.536616 0.000026 -66.313111 0.000024 0.000000 0.000000 0.000000 0.422166 8.211658 18.640271 -1.192092 5.113339 57.713323 0.000005 11.655411 0.000004 0.000000 0.000000 0.000000 
0.265532 93.294907 3.772653 -3.739732 3.558454 2.226735 -1.637213 8.272104 4.277388 18.436123 3.182263 0.703020 -12.388604 1.027072 -5.043075 0.000000 0.000000 0.000000 -1.110509 -11.852408 -11.734417 20.125362 -4.337927 -1.122801 -13.939167 -2.989963 11.029124 0.000000 0.000000 0.000000 4.090659 -0.571630 -0.680534 0.929257 -0.158666 0.059469 0.929223 -0.165818 0.077033 2.158879 -0.772488 0.145904 0.000000 0.000000 0.000000 0.678902 -2.159673 -16.556771 5.250798 -6.613577 -37.373002 -0.000003 -66.483607 0.000014 0.000000 0.000000 0.000000 0.513855 8.157595 18.001525 -0.555923 4.699451 58.346925 -0.000003 12.153987 -0.000025 0.000000 0.000000 0.000000 
